<svg width="20" height="19" viewBox="0 0 20 19"  xmlns="http://www.w3.org/2000/svg">
<g filter="url(#filter0_d_213_372)">
<path d="M12.3545 8.9909L11.1682 7.80454C11.2909 7.16363 11.1068 6.56363 10.6159 6.00454C10.125 5.44545 9.49091 5.22727 8.71364 5.34999L7.52727 4.16363C7.75909 4.05454 7.99432 3.97272 8.23295 3.91818C8.47159 3.86363 8.72727 3.83636 9 3.83636C10.0227 3.83636 10.892 4.19431 11.608 4.91022C12.3239 5.62613 12.6818 6.49545 12.6818 7.51818C12.6818 7.7909 12.6545 8.04659 12.6 8.28522C12.5455 8.52386 12.4636 8.75909 12.3545 8.9909ZM14.9727 11.5682L13.7864 10.4227C14.3045 10.0273 14.7648 9.59431 15.167 9.12386C15.5693 8.6534 15.9136 8.11818 16.2 7.51818C15.5182 6.1409 14.5398 5.04659 13.2648 4.23522C11.9898 3.42386 10.5682 3.01818 9 3.01818C8.60455 3.01818 8.21591 3.04545 7.83409 3.09999C7.45227 3.15454 7.07727 3.23636 6.70909 3.34545L5.44091 2.07727C6 1.84545 6.57273 1.67158 7.15909 1.55568C7.74545 1.43977 8.35909 1.38181 9 1.38181C11.0591 1.38181 12.8932 1.95113 14.5023 3.08977C16.1114 4.2284 17.2773 5.70454 18 7.51818C17.6864 8.32272 17.2739 9.06931 16.7625 9.75795C16.2511 10.4466 15.6545 11.05 14.9727 11.5682ZM15.3818 16.6L11.9455 13.2045C11.4682 13.3545 10.9875 13.467 10.5034 13.542C10.0193 13.617 9.51818 13.6545 9 13.6545C6.94091 13.6545 5.10682 13.0852 3.49773 11.9466C1.88864 10.8079 0.722727 9.33181 0 7.51818C0.286364 6.79545 0.647727 6.12386 1.08409 5.5034C1.52045 4.88295 2.01818 4.32727 2.57727 3.83636L0.327273 1.54545L1.47273 0.399994L16.5273 15.4545L15.3818 16.6ZM3.72273 4.98181C3.32727 5.33636 2.96591 5.72499 2.63864 6.14772C2.31136 6.57045 2.03182 7.02727 1.8 7.51818C2.48182 8.89545 3.46023 9.98977 4.73523 10.8011C6.01023 11.6125 7.43182 12.0182 9 12.0182C9.27273 12.0182 9.53864 12.0011 9.79773 11.967C10.0568 11.933 10.3227 11.8954 10.5955 11.8545L9.85909 11.0773C9.70909 11.1182 9.56591 11.1489 9.42955 11.1693C9.29318 11.1898 9.15 11.2 9 11.2C7.97727 11.2 7.10795 10.842 6.39205 10.1261C5.67614 9.41022 5.31818 8.5409 5.31818 7.51818C5.31818 7.36818 5.32841 7.22499 5.34886 7.08863C5.36932 6.95227 5.4 6.80909 5.44091 6.65909L3.72273 4.98181Z"/>
</g>
<defs>
<filter id="filter0_d_213_372" x="0" y="0.399994" width="20" height="18.2" filterUnits="userSpaceOnUse" color-interpolation-filters="sRGB">
<feFlood flood-opacity="0" result="BackgroundImageFix"/>
<feColorMatrix in="SourceAlpha" type="matrix" values="0 0 0 0 0 0 0 0 0 0 0 0 0 0 0 0 0 0 127 0" result="hardAlpha"/>
<feOffset dx="1" dy="1"/>
<feGaussianBlur stdDeviation="0.5"/>
<feComposite in2="hardAlpha" operator="out"/>
<feColorMatrix type="matrix" values="0 0 0 0 0 0 0 0 0 0 0 0 0 0 0 0 0 0 0.25 0"/>
<feBlend mode="normal" in2="BackgroundImageFix" result="effect1_dropShadow_213_372"/>
<feBlend mode="normal" in="SourceGraphic" in2="effect1_dropShadow_213_372" result="shape"/>
</filter>
</defs>
</svg>
