<svg width="18" height="16" viewBox="0 0 18 16" fill="none" xmlns="http://www.w3.org/2000/svg">
<path d="M8.7 15.3L8.15 14.8C6.53333 13.3167 5.19583 12.05 4.1375 11C3.07917 9.95 2.24583 9.02917 1.6375 8.2375C1.02917 7.44583 0.604167 6.73333 0.3625 6.1C0.120833 5.46667 0 4.83333 0 4.2C0 3.01667 0.404167 2.02083 1.2125 1.2125C2.02083 0.404167 3.01667 0 4.2 0C5.08333 0 5.90833 0.2375 6.675 0.7125C7.44167 1.1875 8.11667 1.88333 8.7 2.8C9.28333 1.88333 9.95833 1.1875 10.725 0.7125C11.4917 0.2375 12.3167 0 13.2 0C14.3833 0 15.3792 0.404167 16.1875 1.2125C16.9958 2.02083 17.4 3.01667 17.4 4.2C17.4 4.83333 17.2792 5.46667 17.0375 6.1C16.7958 6.73333 16.3708 7.44583 15.7625 8.2375C15.1542 9.02917 14.325 9.95 13.275 11C12.225 12.05 10.8833 13.3167 9.25 14.8L8.7 15.3ZM8.7 14.35C10.3 12.9 11.6167 11.6583 12.65 10.625C13.6833 9.59167 14.5 8.69583 15.1 7.9375C15.7 7.17917 16.1167 6.50833 16.35 5.925C16.5833 5.34167 16.7 4.76667 16.7 4.2C16.7 3.2 16.3667 2.36667 15.7 1.7C15.0333 1.03333 14.2 0.7 13.2 0.7C12.4 0.7 11.6625 0.929167 10.9875 1.3875C10.3125 1.84583 9.66667 2.56667 9.05 3.55H8.35C7.71667 2.55 7.06667 1.825 6.4 1.375C5.73333 0.925 5 0.7 4.2 0.7C3.21667 0.7 2.3875 1.03333 1.7125 1.7C1.0375 2.36667 0.7 3.2 0.7 4.2C0.7 4.76667 0.816667 5.34167 1.05 5.925C1.28333 6.50833 1.7 7.17917 2.3 7.9375C2.9 8.69583 3.71667 9.5875 4.75 10.6125C5.78333 11.6375 7.1 12.8833 8.7 14.35Z" fill="#7E4343"/>
</svg>
