<svg width="20" height="15" viewBox="0 0 20 15" fill="none" xmlns="http://www.w3.org/2000/svg">
<g filter="url(#filter0_d_213_366)">
<path d="M9 10.1818C10.0227 10.1818 10.892 9.82386 11.608 9.10795C12.3239 8.39204 12.6818 7.52272 12.6818 6.5C12.6818 5.47727 12.3239 4.60795 11.608 3.89204C10.892 3.17613 10.0227 2.81818 9 2.81818C7.97727 2.81818 7.10795 3.17613 6.39205 3.89204C5.67614 4.60795 5.31818 5.47727 5.31818 6.5C5.31818 7.52272 5.67614 8.39204 6.39205 9.10795C7.10795 9.82386 7.97727 10.1818 9 10.1818ZM9 8.70909C8.38636 8.70909 7.86477 8.49432 7.43523 8.06477C7.00568 7.63522 6.79091 7.11363 6.79091 6.5C6.79091 5.88636 7.00568 5.36477 7.43523 4.93522C7.86477 4.50568 8.38636 4.29091 9 4.29091C9.61364 4.29091 10.1352 4.50568 10.5648 4.93522C10.9943 5.36477 11.2091 5.88636 11.2091 6.5C11.2091 7.11363 10.9943 7.63522 10.5648 8.06477C10.1352 8.49432 9.61364 8.70909 9 8.70909ZM9 12.6364C7.00909 12.6364 5.19545 12.0807 3.55909 10.9693C1.92273 9.85795 0.736364 8.36818 0 6.5C0.736364 4.63181 1.92273 3.14204 3.55909 2.03068C5.19545 0.919314 7.00909 0.363632 9 0.363632C10.9909 0.363632 12.8045 0.919314 14.4409 2.03068C16.0773 3.14204 17.2636 4.63181 18 6.5C17.2636 8.36818 16.0773 9.85795 14.4409 10.9693C12.8045 12.0807 10.9909 12.6364 9 12.6364ZM9 11C10.5409 11 11.9557 10.5943 13.2443 9.78295C14.533 8.97159 15.5182 7.87727 16.2 6.5C15.5182 5.12272 14.533 4.02841 13.2443 3.21704C11.9557 2.40568 10.5409 2 9 2C7.45909 2 6.04432 2.40568 4.75568 3.21704C3.46705 4.02841 2.48182 5.12272 1.8 6.5C2.48182 7.87727 3.46705 8.97159 4.75568 9.78295C6.04432 10.5943 7.45909 11 9 11Z" fill="#7E4343"/>
</g>
<defs>
<filter id="filter0_d_213_366" x="0" y="0.363632" width="20" height="14.2727" filterUnits="userSpaceOnUse" color-interpolation-filters="sRGB">
<feFlood flood-opacity="0" result="BackgroundImageFix"/>
<feColorMatrix in="SourceAlpha" type="matrix" values="0 0 0 0 0 0 0 0 0 0 0 0 0 0 0 0 0 0 127 0" result="hardAlpha"/>
<feOffset dx="1" dy="1"/>
<feGaussianBlur stdDeviation="0.5"/>
<feComposite in2="hardAlpha" operator="out"/>
<feColorMatrix type="matrix" values="0 0 0 0 0 0 0 0 0 0 0 0 0 0 0 0 0 0 0.25 0"/>
<feBlend mode="normal" in2="BackgroundImageFix" result="effect1_dropShadow_213_366"/>
<feBlend mode="normal" in="SourceGraphic" in2="effect1_dropShadow_213_366" result="shape"/>
</filter>
</defs>
</svg>
